<svg xmlns="http://www.w3.org/2000/svg" viewBox="0 0 64 64" id="sun-energy">
  <path d="M26.1 11.8c.1 0 1.2-.3 1.6-.4.5-.1.9-.6.8-1.2s-.6-.9-1.2-.8c-.5.1-1 .2-1.5.4-.5.1-.8.7-.7 1.2.2.5.6.8 1 .8zM32 53c-11.6 0-21-9.4-21-21 0-7.9 4.4-15.1 11.5-18.7.5-.3.7-.9.4-1.3-.3-.5-.9-.7-1.3-.4C13.8 15.5 9 23.3 9 32c0 12.7 10.3 23 23 23 .6 0 1-.4 1-1s-.4-1-1-1zm0-44c-.6 0-1 .4-1 1s.4 1 1 1c11.6 0 21 9.4 21 21 0 10.1-7.2 18.8-17.2 20.7-.5.1-.9.6-.8 1.2.2 1 1.1.8 1.2.8C47.1 52.6 55 43.1 55 32 55 19.3 44.7 9 32 9zm0-2c.6 0 1-.4 1-1V2c0-.6-.4-1-1-1s-1 .4-1 1v4c0 .6.4 1 1 1zm-19.1 7.3c.2.2.8.6 1.4 0 .4-.4.4-1 0-1.4l-2.8-2.8c-.4-.4-1-.4-1.4 0s-.4 1 0 1.4l2.8 2.8zM6 31H2c-.6 0-1 .4-1 1s.4 1 1 1h4c.6 0 1-.4 1-1s-.4-1-1-1z"></path>
  <path d="m12.9 49.7-2.8 2.8c-.4.4-.4 1 0 1.4.4.5 1.2.2 1.4 0l2.8-2.8c.4-.4.4-1 0-1.4s-1-.4-1.4 0zM32 57c-.6 0-1 .4-1 1v4c0 .6.4 1 1 1s1-.4 1-1v-4c0-.6-.4-1-1-1zm19.1-7.3c-.4-.4-1-.4-1.4 0s-.4 1 0 1.4l2.8 2.8c.2.2.9.6 1.4 0 .4-.4.4-1 0-1.4l-2.8-2.8zM62 31h-4c-.6 0-1 .4-1 1s.4 1 1 1h4c.6 0 1-.4 1-1s-.4-1-1-1zM51.1 14.3l2.8-2.8c.4-.4.4-1 0-1.4s-1-.4-1.4 0l-2.8 2.8c-.4.4-.4 1 0 1.4.5.6 1.2.2 1.4 0zM15.4 35.8c-.1-.5-.7-.9-1.2-.8-.5.1-.9.7-.8 1.2 1.1 4.7 3.9 8.9 8 11.6.2.1 1 .4 1.4-.3.3-.5.2-1.1-.3-1.4-3.6-2.4-6.1-6.1-7.1-10.3zm33.2-7.6c.1.6.2 1.2.3 1.9.1.5.6 1 1.1.9.5-.1.9-.6.9-1.1-.1-.8-.2-1.5-.4-2.1-.1-.5-.7-.9-1.2-.7-.5.1-.8.6-.7 1.1zM36.2 13.5c-.5-.1-1.1.2-1.2.8-.1.5.2 1.1.8 1.2 5 1.1 9.2 4.4 11.5 9 .2.4.7.7 1.3.5.5-.2.7-.8.5-1.3-2.6-5.3-7.3-9-12.9-10.2zM24 35h4.8L27 43.8c-.1.4.1.9.5 1.1.6.3 1 0 1.2-.2l12-14c.3-.3.3-.7.1-1.1-.1-.4-.4-.6-.8-.6h-4.8l1.8-8.8c.1-.4-.1-.9-.5-1.1-.4-.2-.9-.1-1.2.2l-5 5.8c-.4.4-.3 1.1.1 1.4.4.4 1.1.3 1.4-.1l2.5-2.9-1.3 6.3c0 .9.7 1.2 1 1.2h3.8l-8.1 9.4 1.2-6.2c.1-.3-.1-1.3-1-1.2h-3.8l2-2.3c.4-.4.3-1.1-.1-1.4-.4-.4-1.1-.3-1.4.1l-3.4 4c-.3.3-.3.7-.1 1.1.2.3.5.5.9.5z"></path>
</svg>
